<svg width="51" height="51" viewBox="0 0 51 51" fill="none" xmlns="http://www.w3.org/2000/svg">
<path d="M38.9719 43.4776C35.8717 45.2272 32.2488 45.8259 28.7444 45.1611C25.1331 44.4759 21.8961 42.496 19.6413 39.5931C17.3864 36.6901 16.2689 33.0639 16.4985 29.3954C16.7281 25.7268 18.289 22.2682 20.8882 19.6691C23.4873 17.0699 26.9459 15.509 30.6145 15.2795C34.283 15.0499 37.9092 16.1675 40.8121 18.4223C43.715 20.6771 45.6949 23.9141 46.3801 27.5255C47.0449 31.0298 46.4462 34.6527 44.6966 37.7529L46.0246 42.4007C46.1199 42.7342 46.1242 43.0872 46.0372 43.423C45.9502 43.7589 45.775 44.0653 45.5296 44.3106C45.2843 44.5559 44.9779 44.7312 44.6421 44.8182C44.3062 44.9052 43.9533 44.9009 43.6197 44.8055L43.8144 44.1242L43.6197 44.8055L38.9719 43.4776Z" fill="#0D7FF7" stroke="white" stroke-width="1.5" stroke-linecap="round" stroke-linejoin="round"/>
<path d="M11.9226 34.4776C15.0229 36.2272 18.6458 36.8259 22.1501 36.1611C25.7614 35.4759 28.9984 33.496 31.2533 30.5931C33.5081 27.6901 34.6256 24.0639 34.396 20.3954C34.1665 16.7268 32.6055 13.2682 30.0064 10.6691C27.4072 8.06995 23.9486 6.50904 20.2801 6.27947C16.6115 6.0499 12.9853 7.16746 10.0824 9.42229C7.17951 11.6771 5.1996 14.9141 4.51445 18.5255C3.84961 22.0298 4.44832 25.6527 6.19791 28.7529L4.86997 33.4007C4.77466 33.7342 4.77029 34.0872 4.85732 34.423C4.94434 34.7589 5.11958 35.0653 5.36489 35.3106C5.6102 35.5559 5.91664 35.7312 6.25247 35.8182C6.58829 35.9052 6.94128 35.9009 7.27485 35.8055L7.08017 35.1242L7.27485 35.8055L11.9226 34.4776Z" fill="#0D7FF7" stroke="white" stroke-width="1.5" stroke-linecap="round" stroke-linejoin="round"/>
</svg>
