<svg width="51" height="51" viewBox="0 0 51 51" fill="none" xmlns="http://www.w3.org/2000/svg">
<path d="M21.9406 9.17362C22.8459 5.44213 28.1541 5.44213 29.0594 9.17362C29.1952 9.7342 29.4615 10.2548 29.8365 10.693C30.2115 11.1312 30.6848 11.4747 31.2176 11.6955C31.7505 11.9162 32.328 12.0081 32.903 11.9635C33.4781 11.9189 34.0345 11.7391 34.527 11.4389C37.8059 9.44137 41.5607 13.1941 39.5632 16.4751C39.2634 16.9674 39.0839 17.5235 39.0395 18.0981C38.995 18.6728 39.0867 19.2499 39.3072 19.7824C39.5278 20.315 39.8708 20.788 40.3085 21.163C40.7463 21.538 41.2663 21.8044 41.8264 21.9406C45.5579 22.8459 45.5579 28.1541 41.8264 29.0594C41.2658 29.1952 40.7452 29.4615 40.307 29.8365C39.8688 30.2115 39.5253 30.6848 39.3045 31.2176C39.0838 31.7505 38.9919 32.328 39.0365 32.903C39.0811 33.4781 39.2609 34.0345 39.5611 34.527C41.5586 37.8059 37.8059 41.5607 34.5249 39.5632C34.0326 39.2634 33.4765 39.0839 32.9019 39.0395C32.3272 38.995 31.7501 39.0867 31.2176 39.3072C30.685 39.5278 30.212 39.8708 29.837 40.3085C29.462 40.7463 29.1956 41.2663 29.0594 41.8264C28.1541 45.5579 22.8459 45.5579 21.9406 41.8264C21.8048 41.2658 21.5385 40.7452 21.1635 40.307C20.7884 39.8688 20.3152 39.5253 19.7824 39.3045C19.2495 39.0838 18.672 38.9919 18.097 39.0365C17.5219 39.0811 16.9655 39.2609 16.473 39.5611C13.1941 41.5586 9.43925 37.8059 11.4367 34.5249C11.7366 34.0326 11.916 33.4765 11.9605 32.9019C12.005 32.3272 11.9133 31.7501 11.6928 31.2176C11.4722 30.685 11.1292 30.212 10.6915 29.837C10.2537 29.462 9.7337 29.1956 9.17362 29.0594C5.44213 28.1541 5.44213 22.8459 9.17362 21.9406C9.7342 21.8048 10.2548 21.5385 10.693 21.1635C11.1312 20.7884 11.4747 20.3152 11.6955 19.7824C11.9162 19.2495 12.0081 18.672 11.9635 18.097C11.9189 17.5219 11.7391 16.9655 11.4389 16.473C9.44137 13.1941 13.1941 9.43925 16.4751 11.4367C18.5916 12.7287 21.3541 11.5855 21.9406 9.17362Z" stroke="#0D7FF7" stroke-width="1.2" stroke-linecap="round" stroke-linejoin="round"/>
<path d="M31.875 25.5C31.875 27.1908 31.2034 28.8123 30.0078 30.0078C28.8123 31.2034 27.1908 31.875 25.5 31.875C23.8092 31.875 22.1877 31.2034 20.9922 30.0078C19.7966 28.8123 19.125 27.1908 19.125 25.5C19.125 23.8092 19.7966 22.1877 20.9922 20.9922C22.1877 19.7966 23.8092 19.125 25.5 19.125C27.1908 19.125 28.8123 19.7966 30.0078 20.9922C31.2034 22.1877 31.875 23.8092 31.875 25.5Z" fill="white" stroke="#0D7FF7" stroke-width="1.2" stroke-linecap="round" stroke-linejoin="round"/>
</svg>
