<svg width="56" height="56" viewBox="0 0 56 56" fill="none" xmlns="http://www.w3.org/2000/svg">
<path d="M47.9429 22.7429C47.9429 21.2576 47.3529 19.8333 46.3027 18.7831C45.2525 17.7329 43.8281 17.1429 42.3429 17.1429H22.7429C21.2577 17.1429 19.8333 17.7329 18.7831 18.7831C17.7329 19.8333 17.1429 21.2576 17.1429 22.7429V33.9429C17.1429 35.4281 17.7329 36.8524 18.7831 37.9026C19.8333 38.9528 21.2577 39.5428 22.7429 39.5428H28.3429L36.7429 47.9428V39.5428H42.3429C43.8281 39.5428 45.2525 38.9528 46.3027 37.9026C47.3529 36.8524 47.9429 35.4281 47.9429 33.9429V22.7429Z" fill="#0D7FF7"/>
<path d="M25.2001 30.2001H24.9516L24.7758 30.3759L17.4001 37.7516V30.8001V30.2001H16.8001H11.2001C9.87401 30.2001 8.60225 29.6733 7.66456 28.7356C6.72688 27.798 6.2001 26.5262 6.2001 25.2001V14.0001C6.2001 12.674 6.72688 11.4023 7.66456 10.4646C8.60224 9.5269 9.87401 9.00012 11.2001 9.00012H30.8001C32.1262 9.00012 33.3979 9.5269 34.3356 10.4646C35.2733 11.4023 35.8001 12.674 35.8001 14.0001V25.2001C35.8001 26.5262 35.2733 27.798 34.3356 28.7356C33.3979 29.6733 32.1262 30.2001 30.8001 30.2001H25.2001Z" fill="#0D7FF7" stroke="white" stroke-width="1.2"/>
</svg>
