<svg width="21" height="21" viewBox="0 0 21 21" fill="none" xmlns="http://www.w3.org/2000/svg">
<path d="M18.375 18.375L13.125 13.125L18.375 18.375ZM14.875 8.75C14.875 9.55435 14.7166 10.3508 14.4088 11.0939C14.101 11.8371 13.6498 12.5123 13.081 13.081C12.5123 13.6498 11.8371 14.101 11.0939 14.4088C10.3508 14.7166 9.55435 14.875 8.75 14.875C7.94565 14.875 7.14918 14.7166 6.40606 14.4088C5.66294 14.101 4.98773 13.6498 4.41897 13.081C3.85021 12.5123 3.39905 11.8371 3.09124 11.0939C2.78343 10.3508 2.625 9.55435 2.625 8.75C2.625 7.12555 3.27031 5.56763 4.41897 4.41897C5.56763 3.27031 7.12555 2.625 8.75 2.625C10.3745 2.625 11.9324 3.27031 13.081 4.41897C14.2297 5.56763 14.875 7.12555 14.875 8.75Z" stroke="#BDBDBD" stroke-width="2" stroke-linecap="round" stroke-linejoin="round"/>
</svg>
