<svg width="50" height="50" viewBox="0 0 50 50" fill="none" xmlns="http://www.w3.org/2000/svg">
<circle cx="25" cy="25" r="25" fill="#F0F0F0"/>
<path d="M29.5 18C29.5 19.1935 29.0259 20.3381 28.182 21.182C27.3381 22.0259 26.1935 22.5 25 22.5C23.8065 22.5 22.6619 22.0259 21.818 21.182C20.9741 20.3381 20.5 19.1935 20.5 18C20.5 16.8065 20.9741 15.6619 21.818 14.818C22.6619 13.9741 23.8065 13.5 25 13.5C26.1935 13.5 27.3381 13.9741 28.182 14.818C29.0259 15.6619 29.5 16.8065 29.5 18ZM37 21C37 21.7956 36.6839 22.5587 36.1213 23.1213C35.5587 23.6839 34.7956 24 34 24C33.2044 24 32.4413 23.6839 31.8787 23.1213C31.3161 22.5587 31 21.7956 31 21C31 20.2044 31.3161 19.4413 31.8787 18.8787C32.4413 18.3161 33.2044 18 34 18C34.7956 18 35.5587 18.3161 36.1213 18.8787C36.6839 19.4413 37 20.2044 37 21ZM31 31.5C31 29.9087 30.3679 28.3826 29.2426 27.2574C28.1174 26.1321 26.5913 25.5 25 25.5C23.4087 25.5 21.8826 26.1321 20.7574 27.2574C19.6321 28.3826 19 29.9087 19 31.5V36H31V31.5ZM19 21C19 21.7956 18.6839 22.5587 18.1213 23.1213C17.5587 23.6839 16.7957 24 16 24C15.2044 24 14.4413 23.6839 13.8787 23.1213C13.3161 22.5587 13 21.7956 13 21C13 20.2044 13.3161 19.4413 13.8787 18.8787C14.4413 18.3161 15.2044 18 16 18C16.7957 18 17.5587 18.3161 18.1213 18.8787C18.6839 19.4413 19 20.2044 19 21ZM34 36V31.5C34.0022 29.9749 33.6149 28.4745 32.875 27.141C33.54 26.9708 34.2351 26.9548 34.9073 27.0941C35.5795 27.2334 36.2109 27.5244 36.7535 27.9449C37.2961 28.3653 37.7355 28.9042 38.0382 29.5203C38.3409 30.1364 38.4988 30.8135 38.5 31.5V36H34ZM17.125 27.141C16.3851 28.4746 15.9979 29.9749 16 31.5V36H11.5V31.5C11.4997 30.8131 11.6567 30.1352 11.9589 29.5183C12.2611 28.9014 12.7006 28.3619 13.2436 27.9411C13.7866 27.5203 14.4187 27.2295 15.0915 27.0908C15.7643 26.9521 16.4599 26.9693 17.125 27.141Z" fill="#BDBDBD"/>
</svg>
