<svg width="39" height="39" viewBox="0 0 39 39" fill="none" xmlns="http://www.w3.org/2000/svg">
<rect x="0.5" y="0.5" width="38" height="38" rx="19" stroke="#0D7FF7"/>
<path d="M17.476 10.2164C17.9908 8.09454 21.0092 8.09454 21.524 10.2164C21.6012 10.5351 21.7526 10.8311 21.9659 11.0803C22.1791 11.3295 22.4482 11.5248 22.7512 11.6504C23.0542 11.7759 23.3826 11.8281 23.7096 11.8028C24.0366 11.7774 24.353 11.6752 24.633 11.5045C26.4975 10.3686 28.6326 12.5025 27.4968 14.3682C27.3263 14.6481 27.2242 14.9643 27.1989 15.2911C27.1736 15.6179 27.2258 15.946 27.3512 16.2488C27.4766 16.5517 27.6716 16.8206 27.9205 17.0339C28.1694 17.2471 28.4652 17.3986 28.7836 17.476C30.9055 17.9908 30.9055 21.0092 28.7836 21.524C28.4649 21.6012 28.1689 21.7526 27.9197 21.9659C27.6705 22.1791 27.4752 22.4482 27.3496 22.7512C27.2241 23.0542 27.1719 23.3826 27.1972 23.7096C27.2226 24.0366 27.3248 24.353 27.4955 24.633C28.6314 26.4975 26.4975 28.6326 24.6318 27.4968C24.3519 27.3263 24.0357 27.2242 23.7089 27.1989C23.3821 27.1736 23.054 27.2258 22.7512 27.3512C22.4483 27.4766 22.1794 27.6716 21.9661 27.9205C21.7529 28.1694 21.6014 28.4652 21.524 28.7836C21.0092 30.9055 17.9908 30.9055 17.476 28.7836C17.3988 28.4649 17.2474 28.1689 17.0341 27.9197C16.8209 27.6705 16.5518 27.4752 16.2488 27.3496C15.9458 27.2241 15.6174 27.1719 15.2904 27.1972C14.9634 27.2226 14.647 27.3248 14.367 27.4955C12.5025 28.6314 10.3674 26.4975 11.5033 24.6318C11.6737 24.3519 11.7758 24.0357 11.8011 23.7089C11.8264 23.3821 11.7742 23.054 11.6488 22.7512C11.5234 22.4483 11.3284 22.1794 11.0795 21.9661C10.8306 21.7529 10.5348 21.6014 10.2164 21.524C8.09454 21.0092 8.09454 17.9908 10.2164 17.476C10.5351 17.3988 10.8311 17.2474 11.0803 17.0341C11.3295 16.8209 11.5248 16.5518 11.6504 16.2488C11.7759 15.9458 11.8281 15.6174 11.8028 15.2904C11.7774 14.9634 11.6752 14.647 11.5045 14.367C10.3686 12.5025 12.5025 10.3674 14.3682 11.5033C15.5717 12.2379 17.1425 11.5878 17.476 10.2164Z" stroke="#0D7FF7" stroke-linecap="round" stroke-linejoin="round"/>
<path d="M23.125 19.5C23.125 20.4614 22.7431 21.3834 22.0633 22.0633C21.3834 22.7431 20.4614 23.125 19.5 23.125C18.5386 23.125 17.6166 22.7431 16.9367 22.0633C16.2569 21.3834 15.875 20.4614 15.875 19.5C15.875 18.5386 16.2569 17.6166 16.9367 16.9367C17.6166 16.2569 18.5386 15.875 19.5 15.875C20.4614 15.875 21.3834 16.2569 22.0633 16.9367C22.7431 17.6166 23.125 18.5386 23.125 19.5V19.5Z" stroke="#0D7FF7" stroke-linecap="round" stroke-linejoin="round"/>
</svg>
