<svg width="21" height="21" viewBox="0 0 21 21" fill="none" xmlns="http://www.w3.org/2000/svg">
<path fill-rule="evenodd" clip-rule="evenodd" d="M3.89224 2.40763C3.69421 2.21637 3.42898 2.11053 3.15367 2.11292C2.87836 2.11532 2.61501 2.22574 2.42033 2.42042C2.22565 2.6151 2.11523 2.87845 2.11283 3.15376C2.11044 3.42907 2.21627 3.6943 2.40754 3.89233L17.1075 18.5923C17.3056 18.7836 17.5708 18.8894 17.8461 18.887C18.1214 18.8846 18.3848 18.7742 18.5795 18.5795C18.7741 18.3849 18.8846 18.1215 18.8869 17.8462C18.8893 17.5709 18.7835 17.3057 18.5922 17.1076L17.0456 15.561C18.681 14.257 19.8903 12.4949 20.519 10.5C19.1813 6.24013 15.2018 3.14998 10.4999 3.14998C8.85394 3.14775 7.23072 3.53413 5.76229 4.27768L3.89329 2.40763H3.89224ZM8.36629 6.88063L9.95599 8.47138C10.312 8.37683 10.6867 8.37746 11.0424 8.4732C11.3981 8.56894 11.7225 8.75644 11.9829 9.01693C12.2434 9.27741 12.4309 9.60175 12.5267 9.95748C12.6224 10.3132 12.623 10.6878 12.5285 11.0439L14.1182 12.6336C14.5917 11.8314 14.7851 10.8946 14.668 9.97044C14.5509 9.04632 14.1299 8.18735 13.4712 7.52867C12.8125 6.86999 11.9536 6.44897 11.0294 6.33185C10.1053 6.21473 9.16847 6.40815 8.36629 6.88168V6.88063Z" fill="#0D7FF7"/>
<path d="M13.0768 17.5319L10.2376 14.6916C9.21663 14.6277 8.25413 14.1933 7.53072 13.4701C6.8073 12.7469 6.37269 11.7845 6.30846 10.7636L2.45181 6.90692C1.56478 7.96324 0.895024 9.18428 0.480957 10.5C1.81866 14.7599 5.79921 17.85 10.5001 17.85C11.3894 17.85 12.2525 17.7398 13.0768 17.5319Z" fill="#0D7FF7"/>
</svg>