<svg width="21" height="21" viewBox="0 0 21 21" fill="none" xmlns="http://www.w3.org/2000/svg">
<path fill-rule="evenodd" clip-rule="evenodd" d="M5.2499 9.44999V7.34999C5.2499 5.9576 5.80303 4.62225 6.78759 3.63768C7.77216 2.65311 9.10752 2.09999 10.4999 2.09999C11.8923 2.09999 13.2276 2.65311 14.2122 3.63768C15.1968 4.62225 15.7499 5.9576 15.7499 7.34999V9.44999C16.3069 9.44999 16.841 9.67124 17.2348 10.0651C17.6287 10.4589 17.8499 10.993 17.8499 11.55V16.8C17.8499 17.3569 17.6287 17.8911 17.2348 18.2849C16.841 18.6787 16.3069 18.9 15.7499 18.9H5.2499C4.69295 18.9 4.1588 18.6787 3.76498 18.2849C3.37115 17.8911 3.1499 17.3569 3.1499 16.8V11.55C3.1499 10.993 3.37115 10.4589 3.76498 10.0651C4.1588 9.67124 4.69295 9.44999 5.2499 9.44999ZM13.6499 7.34999V9.44999H7.3499V7.34999C7.3499 6.51456 7.68178 5.71334 8.27252 5.1226C8.86326 4.53186 9.66447 4.19999 10.4999 4.19999C11.3353 4.19999 12.1365 4.53186 12.7273 5.1226C13.318 5.71334 13.6499 6.51456 13.6499 7.34999Z" fill="#96959A"/>
</svg>