<svg width="39" height="39" viewBox="0 0 39 39" fill="none" xmlns="http://www.w3.org/2000/svg">
<rect x="0.5" y="0.5" width="38" height="38" rx="19" stroke="#0D7FF7"/>
<path d="M23.3326 13.4583L15.3746 21.4164C15.1437 21.6393 14.9596 21.906 14.833 22.2009C14.7063 22.4957 14.6396 22.8128 14.6369 23.1337C14.6341 23.4546 14.6952 23.7728 14.8167 24.0698C14.9382 24.3668 15.1177 24.6366 15.3446 24.8635C15.5715 25.0904 15.8413 25.2699 16.1383 25.3914C16.4353 25.5129 16.7536 25.5741 17.0744 25.5713C17.3953 25.5685 17.7124 25.5018 18.0073 25.3752C18.3021 25.2485 18.5688 25.0644 18.7917 24.8336L26.542 16.8755C27.4224 15.9639 27.9096 14.743 27.8986 13.4757C27.8875 12.2084 27.3792 10.9962 26.4831 10.1C25.587 9.2039 24.3747 8.69558 23.1074 8.68457C21.8401 8.67356 20.6192 9.16073 19.7076 10.0412L11.9562 17.998C10.5964 19.3578 9.83252 21.202 9.83252 23.125C9.83252 25.048 10.5964 26.8922 11.9562 28.252C13.3159 29.6117 15.1602 30.3756 17.0831 30.3756C19.0061 30.3756 20.8503 29.6117 22.2101 28.252L29.7706 20.7083" stroke="#0D7FF7" stroke-linecap="round" stroke-linejoin="round"/>
</svg>
