<svg width="21" height="21" viewBox="0 0 21 21" fill="none" xmlns="http://www.w3.org/2000/svg">
<path d="M9.45029 6.30004C9.45029 7.13547 9.11842 7.93669 8.52768 8.52743C7.93694 9.11817 7.13572 9.45004 6.30029 9.45004C5.46486 9.45004 4.66365 9.11817 4.07291 8.52743C3.48217 7.93669 3.15029 7.13547 3.15029 6.30004C3.15029 5.46461 3.48217 4.66339 4.07291 4.07265C4.66365 3.48191 5.46486 3.15004 6.30029 3.15004C7.13572 3.15004 7.93694 3.48191 8.52768 4.07265C9.11842 4.66339 9.45029 5.46461 9.45029 6.30004ZM17.8503 6.30004C17.8503 6.7137 17.7688 7.12332 17.6105 7.50549C17.4522 7.88767 17.2202 8.23492 16.9277 8.52743C16.6352 8.81993 16.2879 9.05196 15.9057 9.21026C15.5236 9.36856 15.114 9.45004 14.7003 9.45004C14.2866 9.45004 13.877 9.36856 13.4948 9.21026C13.1127 9.05196 12.7654 8.81993 12.4729 8.52743C12.1804 8.23492 11.9484 7.88767 11.7901 7.50549C11.6318 7.12332 11.5503 6.7137 11.5503 6.30004C11.5503 5.46461 11.8822 4.66339 12.4729 4.07265C13.0636 3.48191 13.8649 3.15004 14.7003 3.15004C15.5357 3.15004 16.3369 3.48191 16.9277 4.07265C17.5184 4.66339 17.8503 5.46461 17.8503 6.30004ZM13.5768 17.85C13.6251 17.5067 13.6503 17.157 13.6503 16.8C13.6527 15.1503 13.0977 13.5482 12.0753 12.2535C12.8734 11.7928 13.7787 11.5502 14.7003 11.5502C15.6218 11.5502 16.5271 11.7927 17.3252 12.2535C18.1233 12.7143 18.7861 13.377 19.2469 14.1751C19.7077 14.9732 19.9503 15.8785 19.9503 16.8V17.85H13.5768ZM6.30029 11.55C7.69268 11.55 9.02804 12.1032 10.0126 13.0877C10.9972 14.0723 11.5503 15.4077 11.5503 16.8V17.85H1.05029V16.8C1.05029 15.4077 1.60342 14.0723 2.58798 13.0877C3.57255 12.1032 4.90791 11.55 6.30029 11.55Z" fill="#0D7FF7"/>
</svg>
